<svg width="64" height="64" viewBox="0 0 64 64" fill="none" xmlns="http://www.w3.org/2000/svg">
<path d="M16.9412 11.25H47.0588C56.2771 11.25 63.75 18.7229 63.75 27.9412C63.75 29.0506 62.8506 29.95 61.7412 29.95H2.25882C1.14938 29.95 0.25 29.0506 0.25 27.9412C0.25 18.7229 7.7229 11.25 16.9412 11.25Z" fill="#A9ED9D" stroke="black" stroke-width="0.5"/>
<path d="M47.0588 53.4167L16.9412 53.4167C7.7229 53.4167 0.25 45.9438 0.25 36.7255C0.25 35.6161 1.14938 34.7167 2.25882 34.7167L61.7412 34.7167C62.8506 34.7167 63.75 35.6161 63.75 36.7255C63.75 45.9438 56.2771 53.4167 47.0588 53.4167Z" fill="#EFB9B9" stroke="black" stroke-width="0.5"/>
</svg>
