<svg xmlns="http://www.w3.org/2000/svg" xmlns:xlink="http://www.w3.org/1999/xlink" width="64" zoomAndPan="magnify" viewBox="0 0 48 48" height="64" preserveAspectRatio="xMidYMid meet" version="1.0"><defs><clipPath id="4c27d8e6da"><path d="M 7.328125 9 L 39.65625 9 L 39.65625 46.941406 L 7.328125 46.941406 Z M 7.328125 9 " clip-rule="nonzero"/></clipPath></defs><g clip-path="url(#4c27d8e6da)"><path fill="#264de4" d="M 23.84375 46.878906 L 10.34375 43.109375 L 7.335938 9.199219 L 40.394531 9.195312 L 37.386719 43.105469 L 23.847656 46.875 Z M 23.84375 46.878906 " fill-opacity="1" fill-rule="nonzero"/></g><path fill="#2965f1" d="M 34.808594 40.945312 L 37.382812 11.96875 L 23.867188 11.96875 L 23.867188 43.992188 Z M 34.808594 40.945312 " fill-opacity="1" fill-rule="nonzero"/><path fill="#ebebeb" d="M 14.234375 24.546875 L 14.605469 28.707031 L 23.867188 28.707031 L 23.867188 24.546875 Z M 14.234375 24.546875 " fill-opacity="1" fill-rule="nonzero"/><path fill="#ebebeb" d="M 13.488281 16.128906 L 13.863281 20.289062 L 23.867188 20.289062 L 23.867188 16.128906 Z M 13.488281 16.128906 " fill-opacity="1" fill-rule="nonzero"/><path fill="#ebebeb" d="M 23.867188 35.351562 L 23.847656 35.355469 L 19.238281 34.105469 L 18.945312 30.785156 L 14.789062 30.785156 L 15.367188 37.316406 L 23.847656 39.683594 L 23.867188 39.679688 Z M 23.867188 35.351562 " fill-opacity="1" fill-rule="nonzero"/><path fill="#000000" d="M 15.117188 -0.0195312 L 20.128906 -0.0195312 L 20.128906 2.085938 L 17.210938 2.085938 L 17.210938 4.195312 L 20.128906 4.195312 L 20.128906 6.300781 L 15.117188 6.300781 Z M 15.117188 -0.0195312 " fill-opacity="1" fill-rule="nonzero"/><path fill="#000000" d="M 21.132812 -0.0195312 L 26.144531 -0.0195312 L 26.144531 1.8125 L 23.230469 1.8125 L 23.230469 2.179688 L 26.144531 2.179688 L 26.144531 6.390625 L 21.132812 6.390625 L 21.132812 4.46875 L 24.050781 4.46875 L 24.050781 4.101562 L 21.132812 4.101562 Z M 21.132812 -0.0195312 " fill-opacity="1" fill-rule="nonzero"/><path fill="#000000" d="M 27.148438 -0.0195312 L 32.160156 -0.0195312 L 32.160156 1.8125 L 29.242188 1.8125 L 29.242188 2.179688 L 32.160156 2.179688 L 32.160156 6.390625 L 27.148438 6.390625 L 27.148438 4.46875 L 30.0625 4.46875 L 30.0625 4.101562 L 27.148438 4.101562 Z M 27.148438 -0.0195312 " fill-opacity="1" fill-rule="nonzero"/><path fill="#ffffff" d="M 33.472656 24.546875 L 34.21875 16.128906 L 23.851562 16.128906 L 23.851562 20.289062 L 29.683594 20.289062 L 29.308594 24.546875 L 23.851562 24.546875 L 23.851562 28.707031 L 28.949219 28.707031 L 28.46875 34.101562 L 23.851562 35.355469 L 23.851562 39.679688 L 32.335938 37.316406 L 32.398438 36.613281 L 33.371094 25.664062 Z M 33.472656 24.546875 " fill-opacity="1" fill-rule="nonzero"/></svg>