<svg width="50" height="50" viewBox="0 0 50 50" fill="none" xmlns="http://www.w3.org/2000/svg">
<path d="M18.0558 45.8332C21.8891 45.8332 25.0002 42.7221 25.0002 38.8888V31.9443H18.0558C14.2224 31.9443 11.1113 35.0554 11.1113 38.8888C11.1113 42.7221 14.2224 45.8332 18.0558 45.8332Z" fill="#0ACF83"/>
<path d="M11.1113 25.0001C11.1113 21.1668 14.2224 18.0557 18.0558 18.0557H25.0002V31.9446H18.0558C14.2224 31.9446 11.1113 28.8334 11.1113 25.0001Z" fill="#A259FF"/>
<path d="M11.1113 11.1112C11.1113 7.27786 14.2224 4.16675 18.0558 4.16675H25.0002V18.0556H18.0558C14.2224 18.0556 11.1113 14.9445 11.1113 11.1112Z" fill="#F24E1E"/>
<path d="M25 4.16675H31.9444C35.7778 4.16675 38.8889 7.27786 38.8889 11.1112C38.8889 14.9445 35.7778 18.0556 31.9444 18.0556H25V4.16675Z" fill="#FF7262"/>
<path d="M38.8889 25.0001C38.8889 28.8334 35.7778 31.9446 31.9444 31.9446C28.1111 31.9446 25 28.8334 25 25.0001C25 21.1668 28.1111 18.0557 31.9444 18.0557C35.7778 18.0557 38.8889 21.1668 38.8889 25.0001Z" fill="#1ABCFE"/>
</svg>
