<svg width="50" height="50" viewBox="0 0 50 50" fill="none" xmlns="http://www.w3.org/2000/svg">
<path d="M24.9968 2.12231C12.1316 2.12231 1.69873 12.6244 1.69873 25.5799C1.69873 35.9419 8.37471 44.7324 17.6367 47.8368C18.8017 48.0536 19.227 47.3293 19.227 46.7072C19.227 46.1493 19.207 44.6743 19.1948 42.7173C12.7144 44.134 11.3457 39.572 11.3457 39.572C10.2883 36.8615 8.75889 36.1405 8.75889 36.1405C6.64131 34.6861 8.91641 34.7156 8.91641 34.7156C11.2551 34.8817 12.4842 37.1334 12.4842 37.1334C14.5638 40.7168 17.9398 39.6828 19.2679 39.0814C19.4774 37.5657 20.0802 36.5321 20.7478 35.9451C15.5745 35.352 10.1335 33.3395 10.1335 24.3534C10.1335 21.7919 11.0427 19.6983 12.5335 18.0567C12.2918 17.4638 11.4938 15.0775 12.7609 11.8502C12.7609 11.8502 14.7185 11.2199 19.1685 14.254C21.027 13.7339 23.0192 13.4745 25.0026 13.4657C26.9802 13.4777 28.9749 13.7339 30.8364 14.2572C35.2844 11.2226 37.2387 11.8535 37.2387 11.8535C38.5084 15.0836 37.7105 17.4669 37.4718 18.0594C38.9656 19.701 39.8659 21.7948 39.8659 24.3565C39.8659 33.3661 34.4193 35.349 29.2292 35.9299C30.065 36.6547 30.8104 38.0851 30.8104 40.2728C30.8104 43.4099 30.7813 45.9387 30.7813 46.7072C30.7813 47.3348 31.2006 48.0649 32.3831 47.8341C41.6309 44.7263 48.3009 35.9391 48.3009 25.5799C48.301 12.6243 37.8681 2.12231 24.9968 2.12231Z" fill="#6879D9"/>
</svg>
