<svg xmlns="http://www.w3.org/2000/svg" xmlns:xlink="http://www.w3.org/1999/xlink" width="64" zoomAndPan="magnify" viewBox="0 0 48 48" height="64" preserveAspectRatio="xMidYMid meet" version="1.0"><defs><clipPath id="e590cee1dd"><path d="M 7.328125 9 L 40.390625 9 L 40.390625 46.941406 L 7.328125 46.941406 Z M 7.328125 9 " clip-rule="nonzero"/></clipPath></defs><g clip-path="url(#e590cee1dd)"><path fill="#e44d26" d="M 40.398438 9.195312 L 37.386719 43.105469 L 23.84375 46.875 L 10.34375 43.109375 L 7.335938 9.195312 Z M 40.398438 9.195312 " fill-opacity="1" fill-rule="nonzero"/></g><path fill="#f16529" d="M 23.867188 43.992188 L 34.808594 40.945312 L 37.382812 11.96875 L 23.867188 11.96875 Z M 23.867188 43.992188 " fill-opacity="1" fill-rule="nonzero"/><path fill="#ebebeb" d="M 18.011719 20.289062 L 23.867188 20.289062 L 23.867188 16.128906 L 13.488281 16.128906 L 13.585938 17.246094 L 14.605469 28.707031 L 23.867188 28.707031 L 23.867188 24.546875 L 18.390625 24.546875 Z M 18.011719 20.289062 " fill-opacity="1" fill-rule="nonzero"/><path fill="#ebebeb" d="M 18.945312 30.785156 L 14.789062 30.785156 L 15.367188 37.316406 L 23.847656 39.683594 L 23.867188 39.679688 L 23.867188 35.351562 L 23.847656 35.355469 L 19.238281 34.105469 Z M 18.945312 30.785156 " fill-opacity="1" fill-rule="nonzero"/><path fill="#000000" d="M 10.410156 -0.0195312 L 12.515625 -0.0195312 L 12.515625 2.070312 L 14.4375 2.070312 L 14.4375 -0.0195312 L 16.542969 -0.0195312 L 16.542969 6.304688 L 14.4375 6.304688 L 14.4375 4.1875 L 12.515625 4.1875 L 12.515625 6.304688 L 10.410156 6.304688 Z M 10.410156 -0.0195312 " fill-opacity="1" fill-rule="nonzero"/><path fill="#000000" d="M 19.308594 2.078125 L 17.457031 2.078125 L 17.457031 -0.0195312 L 23.265625 -0.0195312 L 23.265625 2.078125 L 21.410156 2.078125 L 21.410156 6.304688 L 19.308594 6.304688 Z M 19.308594 2.078125 " fill-opacity="1" fill-rule="nonzero"/><path fill="#000000" d="M 24.1875 -0.0195312 L 26.378906 -0.0195312 L 27.726562 2.203125 L 29.078125 -0.0195312 L 31.269531 -0.0195312 L 31.269531 6.304688 L 29.175781 6.304688 L 29.175781 3.171875 L 27.726562 5.417969 L 27.691406 5.417969 L 26.246094 3.171875 L 26.246094 6.304688 L 24.1875 6.304688 Z M 24.1875 -0.0195312 " fill-opacity="1" fill-rule="nonzero"/><path fill="#000000" d="M 32.316406 -0.0195312 L 34.421875 -0.0195312 L 34.421875 4.214844 L 37.378906 4.214844 L 37.378906 6.304688 L 32.316406 6.304688 Z M 32.316406 -0.0195312 " fill-opacity="1" fill-rule="nonzero"/><path fill="#ffffff" d="M 23.851562 28.707031 L 28.949219 28.707031 L 28.46875 34.101562 L 23.851562 35.355469 L 23.851562 39.679688 L 32.335938 37.316406 L 32.398438 36.613281 L 33.371094 25.664062 L 33.472656 24.546875 L 23.851562 24.546875 Z M 23.851562 28.707031 " fill-opacity="1" fill-rule="nonzero"/><path fill="#ffffff" d="M 23.851562 20.277344 L 23.851562 20.289062 L 33.847656 20.289062 L 33.933594 19.351562 L 34.121094 17.246094 L 34.21875 16.128906 L 23.851562 16.128906 Z M 23.851562 20.277344 " fill-opacity="1" fill-rule="nonzero"/></svg>