<svg width="50" height="50" viewBox="0 0 50 50" fill="none" xmlns="http://www.w3.org/2000/svg">
<g clip-path="url(#clip0_19_374)">
<g clip-path="url(#clip1_19_374)">
<path d="M34.9023 49.2993L26.4648 46.9434L24.585 25.7495L45.2466 25.7471L43.3667 46.9409L34.9048 49.2969L34.9023 49.2993Z" fill="#264DE4"/>
<path d="M41.7554 45.5908L43.3643 27.4805H34.917V47.4951L41.7554 45.5908Z" fill="#2965F1"/>
<path d="M28.8965 35.3418L29.1284 37.9419H34.917V35.3418H28.8965Z" fill="#EBEBEB"/>
<path d="M28.4302 30.0806L28.6646 32.6807H34.917V30.0806H28.4302Z" fill="#EBEBEB"/>
<path d="M34.917 42.0947L34.9048 42.0972L32.0239 41.3159L31.8408 39.2407H29.2432L29.6045 43.3228L34.9048 44.8022L34.917 44.7998V42.0947Z" fill="#EBEBEB"/>
<path d="M29.4482 19.9878H32.5806V21.3037H30.7568V22.6221H32.5806V23.938H29.4482V19.9878Z" fill="black"/>
<path d="M33.208 19.9878H36.3403V21.1328H34.519V21.3623H36.3403V23.9941H33.208V22.793H35.0317V22.5635H33.208V19.9878Z" fill="black"/>
<path d="M36.9678 19.9878H40.1001V21.1328H38.2764V21.3623H40.1001V23.9941H36.9678V22.793H38.7891V22.5635H36.9678V19.9878Z" fill="black"/>
<path d="M40.9204 35.3418L41.3867 30.0806H34.9072V32.6807H38.5522L38.3179 35.3418H34.9072V37.9419H38.0933L37.793 41.3135L34.9072 42.0972V44.7998L40.21 43.3228L40.249 42.8833L40.8569 36.04L40.9204 35.3418Z" fill="white"/>
</g>
<g clip-path="url(#clip2_19_374)">
<path d="M25.249 5.74707L23.3667 26.9409L14.9023 29.2969L6.46484 26.9434L4.58496 5.74707H25.249Z" fill="#E44D26"/>
<path d="M14.917 27.4951L21.7554 25.5908L23.3643 7.48047H14.917V27.4951Z" fill="#F16529"/>
<path d="M11.2573 12.6807H14.917V10.0806H8.43018L8.49121 10.7788L9.12842 17.9419H14.917V15.3418H11.4941L11.2573 12.6807Z" fill="#EBEBEB"/>
<path d="M11.8408 19.2407H9.24316L9.60449 23.3228L14.9048 24.8022L14.917 24.7998V22.0947L14.9048 22.0972L12.0239 21.3159L11.8408 19.2407Z" fill="#EBEBEB"/>
<path d="M6.50635 -0.012207H7.82227V1.29395H9.02344V-0.012207H10.3394V3.94043H9.02344V2.61719H7.82227V3.94043H6.50635V-0.012207Z" fill="black"/>
<path d="M12.0679 1.29883H10.9106V-0.012207H14.541V1.29883H13.3813V3.94043H12.0679V1.29883Z" fill="black"/>
<path d="M15.1172 -0.012207H16.4868L17.3291 1.37695L18.1738 -0.012207H19.5435V3.94043H18.2349V1.98242L17.3291 3.38623H17.3071L16.4038 1.98242V3.94043H15.1172V-0.012207Z" fill="black"/>
<path d="M20.1978 -0.012207H21.5137V2.63428H23.3618V3.94043H20.1978V-0.012207Z" fill="black"/>
<path d="M14.9072 17.9419H18.0933L17.793 21.3135L14.9072 22.0972V24.7998L20.21 23.3228L20.249 22.8833L20.8569 16.04L20.9204 15.3418H14.9072V17.9419Z" fill="white"/>
<path d="M14.9072 12.6733V12.6807H21.1548L21.2085 12.0947L21.3257 10.7788L21.3867 10.0806H14.9072V12.6733Z" fill="white"/>
</g>
</g>
<defs>
<clipPath id="clip0_19_374">
<rect width="50" height="50" fill="white"/>
</clipPath>
<clipPath id="clip1_19_374">
<rect width="30" height="30" fill="white" transform="translate(20 20)"/>
</clipPath>
<clipPath id="clip2_19_374">
<rect width="30" height="30" fill="white"/>
</clipPath>
</defs>
</svg>
