<svg width="50" height="50" viewBox="0 0 50 50" fill="none" xmlns="http://www.w3.org/2000/svg">
<g clip-path="url(#clip0_19_602)">
<path d="M0.508625 0H49.4914V48.9787H0.508625V0Z" fill="#F7DF1E"/>
<path d="M13.387 40.9302L17.1387 38.6637C17.8589 39.9455 18.5181 41.0319 20.0968 41.0319C21.6064 41.0319 22.5627 40.4378 22.5627 38.1388V22.4854H27.1647V38.2039C27.1647 42.9687 24.3693 45.1416 20.2922 45.1416C16.6097 45.1416 14.4735 43.2332 13.387 40.9302Z" fill="black"/>
<path d="M29.6631 40.4378L33.4106 38.269C34.3994 39.8763 35.6812 41.0644 37.9476 41.0644C39.856 41.0644 41.0726 40.1082 41.0726 38.7939C41.0726 37.2151 39.8234 36.6577 37.7197 35.734L36.5682 35.2417C33.2479 33.8297 31.0465 32.0556 31.0465 28.304C31.0465 24.8535 33.6751 22.2208 37.7848 22.2208C40.7104 22.2208 42.8182 23.2421 44.3278 25.9073L40.743 28.2063C39.9577 26.7944 39.0991 26.2329 37.7848 26.2329C36.438 26.2329 35.5835 27.0914 35.5835 28.2063C35.5835 29.5898 36.438 30.1473 38.4115 31.0018L39.5589 31.4941C43.4733 33.1705 45.6746 34.8795 45.6746 38.7288C45.6746 42.8711 42.4235 45.1416 38.0493 45.1416C33.7728 45.1416 31.014 43.0989 29.6631 40.4378Z" fill="black"/>
</g>
<defs>
<clipPath id="clip0_19_602">
<rect width="50" height="50" fill="white"/>
</clipPath>
</defs>
</svg>
