<svg width="331" height="43" viewBox="0 0 331 43" fill="none" xmlns="http://www.w3.org/2000/svg">
<path d="M7.73433 4.5C5.73433 12.8333 2.03433 30 3.23433 32C4.43433 34 14.7344 13.5 19.7344 3C17.7344 11.5 14.1344 29.3 15.7344 32.5C17.3344 35.7 27.0677 15.1667 31.7344 4.5L24.2344 23.5C29.401 23.5 39.8344 22.6 40.2344 19C40.6344 15.4 36.7344 16.1667 34.7344 17C32.901 19.6667 29.5344 25.7 30.7344 28.5C31.9344 31.3 36.901 28 39.2344 26C40.5677 18.1667 43.9344 2.8 46.7344 4C50.2344 5.5 51.2344 7 51.2344 8C51.2344 9 42.2344 28.5 43.7344 32C45.2344 35.5 48.7344 -4 56.2344 6C63.7344 16 59.7344 23 59.7344 21C59.7344 19 60.7344 15 57.2344 17C53.7344 19 49.7344 27.5 52.2344 29C54.2344 30.2 59.0677 26.5 61.2344 24.5L73.2344 15C69.5677 19 62.9344 27.4 65.7344 29C69.2344 31 75.2344 24 75.2344 21.5C75.2344 19.5 72.5677 19 71.2344 19L83.7344 12C82.7344 17.6667 80.7344 29.2 80.7344 30C80.7344 31 90.7344 12.5 90.2344 18C89.8344 22.4 89.0677 27.8333 88.7344 30C91.2344 25.1667 96.3344 16.6 96.7344 21C97.1344 25.4 96.901 28.8333 96.7344 30L98.7344 18C100.568 20.1667 104.834 24.3 107.234 23.5C110.234 22.5 115.234 19 113.734 18C112.534 17.2 108.901 17 107.234 17C105.234 20.3333 101.834 27.4 104.234 29C106.634 30.6 110.568 26.6667 112.234 24.5L122.734 15C128.401 15.6667 139.234 16.1 137.234 12.5C134.734 8 132.234 10 131.234 12.5C130.234 15 123.234 30 126.234 30C128.634 30 133.234 27.6667 135.234 26.5C136.734 18.6667 140.534 4.5 143.734 10.5C146.934 16.5 146.734 18 146.234 18C143.901 18.6667 139.334 21 139.734 25C140.234 30 138.234 29 142.234 29C146.234 29 150.734 19 149.734 18C148.934 17.2 148.068 16.6667 147.734 16.5C150.734 24.3333 157.834 37.8 162.234 29C166.634 20.2 173.068 8.33333 175.734 3.5C174.068 12.5 171.134 30.2 172.734 29C174.334 27.8 186.068 10.5 191.734 2L183.234 34.5C186.068 24.5 192.034 5.8 193.234 11C194.734 17.5 195.234 17.5 194.734 19C194.234 20.5 190.734 28 192.734 28C194.334 28 198.734 25.6667 200.734 24.5L202.234 14.5C201.068 24.5 196.334 43.5 186.734 39.5C174.734 34.5 224.234 -1 222.734 7C221.234 15 214.734 33.5 217.234 31C219.734 28.5 216.734 4.5 223.734 5.5C230.734 6.5 233.234 7 233.234 10C233.234 13 228.734 19 226.234 20.5C224.234 21.7 221.734 20 220.734 19C228.568 16.8333 243.534 13.2 240.734 16C237.234 19.5 231.234 26 235.234 29C238.434 31.4 241.901 24.6667 243.234 21L240.234 19C245.068 17 254.234 14 252.234 18C249.734 23 244.234 35.5 249.234 28C253.234 22 258.234 18.5 260.234 17.5L262.734 15C267.234 15.3333 275.734 15.5 273.734 13.5C271.234 11 272.734 5.5 270.234 9C267.734 12.5 259.734 30 263.734 29.5C267.734 29 270.734 29.5 271.234 25.5C271.634 22.3 270.734 18.1667 270.234 16.5C275.401 18 285.834 20.4 286.234 18C286.734 15 290.234 4.5 287.734 5.5C285.234 6.5 278.734 12 277.234 22C276.034 30 276.401 33.3333 276.734 34C284.734 25.5 299.534 10 294.734 16C288.734 23.5 287.234 27.5 289.234 29C291.234 30.5 297.734 25 297.734 22C297.734 19.6 296.734 17.3333 296.234 16.5C301.234 11.5 310.934 2.5 309.734 6.5C308.534 10.5 302.568 25.5 299.734 32.5C305.734 22.1667 316.934 3.8 313.734 13C310.534 22.2 309.401 29.1667 309.234 31.5C313.068 25.1667 321.034 13.2 322.234 16C323.734 19.5 319.734 21 318.734 22.5C317.734 24 315.734 30 318.734 29C321.734 28 325.734 26.5 326.234 25C326.634 23.8 326.401 21.8333 326.234 21L328.234 17.5" stroke="#FF0000" stroke-opacity="0.5" stroke-width="5"/>
</svg>
