<svg id="svg_mask" width="244" height="34" viewBox="0 0 244 34" fill="none" xmlns="http://www.w3.org/2000/svg">
<mask id="clipmask">
<path d="M2 15.615C7.6 6.01499 8 7.94832 7.5 10.115L5 26.615C5 27.4483 5.5 28.415 7.5 25.615C10 22.115 17.5 6.11499 16 11.615C14.5 17.115 14 26.615 15.5 26.615C17 26.615 25 8.61499 25 7.61499C25 6.81499 20.3333 19.9483 18 26.615C22.6667 24.9483 32 21.315 32 20.115C32 18.615 31 16.615 30 16.615C29 16.615 22 22.615 23 23.115C24 23.615 23.5 27.115 25 27.115C26.2 27.115 32.5 24.4483 35.5 23.115L43.5 5.61499C40 12.615 33.2 26.715 34 27.115C34.8 27.515 41.3333 23.2817 44.5 21.115L49 20.615L50.5 15.615L43.5 20.615C42.8333 22.115 41.7 25.315 42.5 26.115C43.5 27.115 47 27.115 47.5 26.615C47.9 26.215 52.3333 23.115 54.5 21.615L59.5 16.615C56.6667 18.4483 51.3 22.615 52.5 24.615C54 27.115 54 27.615 55.5 27.115C57 26.615 61 23.615 61 21.115C61 18.615 62 17.115 60 16.615C58 16.115 59 25.115 61.5 24.115C63.5 23.315 68.3333 17.7817 70.5 15.115L64 29.115C67 24.615 73.4 15.815 75 16.615C76.6 17.415 72.6667 24.2817 70.5 27.615C74.3333 22.9483 82.1 14.315 82.5 17.115C82.9 19.915 79.6667 23.9483 78 25.615C77 27.115 76.3 29.515 81.5 27.115C86.7 24.715 93.3333 20.4483 96 18.615C95.5 17.2817 94 15.015 92 16.615C90 18.215 87.1667 21.2817 86 22.615C85.8333 24.2817 86.1 27.415 88.5 26.615C90.9 25.815 96.5 23.615 99 22.615L102.5 17.615L114.5 17.115L113.5 7.61499C110 14.2817 103.5 27.515 105.5 27.115C107.5 26.715 116.333 20.615 120.5 17.615C118.5 17.9483 114.5 18.815 114.5 19.615C114.5 20.615 113 27.115 114 27.115C115 27.115 120.5 25.615 121 24.115C121.5 22.615 123 16.615 121 16.615C119 16.615 121 26.115 123 24.615C124.6 23.415 127.667 19.7817 129 18.115L136.5 13.115C138.333 10.2817 143.1 4.91499 147.5 6.11499C153 7.61499 153.5 10.615 153.5 11.615C153.5 12.615 152.5 16.615 151 16.615C149.5 16.615 142 19.615 142.5 17.115C142.9 15.115 145 12.9483 146 12.115L137 29.115L162 7.11499C161.333 10.615 159.7 17.715 158.5 18.115C157 18.615 153 19.115 152.5 24.615C152.1 29.015 158.333 25.115 161.5 22.615L160.5 15.615C160.833 18.615 162 24.215 164 22.615C166 21.015 168.833 17.9483 170 16.615L163.5 28.615L169.5 18.615C172.333 17.615 177.3 16.415 174.5 19.615C171 23.615 170.5 25.615 170.5 26.115C170.5 26.515 177.167 23.2817 180.5 21.615L176 17.615H199L187.5 7.61499C182.5 16.2817 174 32.515 180 28.115C186 23.715 195.5 16.615 199.5 13.615C200 12.4483 200.7 10.115 199.5 10.115C198 10.115 197 9.61499 194.5 12.115C192.5 14.115 186.333 26.615 183.5 32.615C192.167 19.9483 208.7 -3.08501 205.5 6.11499C202.3 15.315 200.833 18.2817 200.5 18.615C198.333 19.4483 194.3 21.915 195.5 25.115C196.7 28.315 201 25.7817 203 24.115C203.667 21.615 204.6 16.815 203 17.615C201 18.615 201 26.615 203.5 25.115C206 23.615 213 17.115 213 16.615C213 16.215 215.667 9.44832 217 6.11499C213.167 14.4483 206.1 30.615 208.5 28.615C211.5 26.115 220 20.615 220 19.615C220 18.615 220 16.615 219.5 18.115C219 19.615 215.5 30.615 218.5 27.615C220.9 25.215 227.5 19.2817 230.5 16.615C227.5 20.4483 222.3 27.915 225.5 27.115C229.5 26.115 231.5 26.115 232 24.615C232.5 23.115 235 18.115 233 17.615C231.4 17.215 230.667 17.4483 230.5 17.615C231 20.615 232.4 26.215 234 24.615C235.6 23.015 238.667 19.9483 240 18.615L224.5 8.61499L220.5 15.615" stroke="#FF0000" stroke-width="4"/>
</mask>
</svg>
