<svg width="50" height="50" viewBox="0 0 50 50" fill="none" xmlns="http://www.w3.org/2000/svg">
<path d="M24.1959 30.8036L18.3923 47.5893C18.1245 48.3929 18.5709 49.1964 19.3745 49.375C21.1602 49.8214 23.0352 50 24.9995 50C27.4102 50 29.7316 49.6429 31.9638 49.0179C32.678 48.8393 33.1245 48.0357 32.8566 47.3214L26.7852 30.8036C26.3388 29.5536 24.6423 29.5536 24.1959 30.8036Z" fill="#0072FF"/>
<path d="M0.892857 18.4821C0.267857 20.5357 0 22.7679 0 25C0 34.1071 4.82143 42.0536 12.0536 46.4286C12.7679 46.875 13.5714 46.1607 13.3036 45.3571L3.48214 18.3036C3.03571 17.1429 1.25 17.2321 0.892857 18.4821Z" fill="#0072FF"/>
<path d="M41.5172 6.51786C41.6064 6.51786 41.6957 6.51786 41.8743 6.51786C37.41 2.5 31.5172 0 24.9993 0C16.2493 0 8.57073 4.46429 4.10645 11.25C4.73145 11.25 5.26716 11.25 5.71359 11.25C8.30287 11.25 12.41 10.8929 12.41 10.8929C13.7493 10.8036 13.9279 12.7679 12.5886 12.9464C12.5886 12.9464 12.4993 12.9464 12.41 12.9464C11.0707 13.125 10.1779 14.4643 10.6243 15.7143L17.5886 36.4286C18.035 37.6786 19.7314 37.6786 20.1779 36.4286L23.4814 26.5179C24.1064 24.7321 24.0172 22.8571 23.3922 21.1607L21.4279 15.8036C20.8922 14.2857 19.4636 13.2143 17.8564 12.9464C16.5172 12.8571 16.6957 10.8036 18.035 10.8929C18.035 10.8929 22.1422 11.25 24.6422 11.25C27.2314 11.25 31.3386 10.8929 31.3386 10.8929C32.6779 10.8036 32.8564 12.7679 31.5172 12.9464C30.0886 13.125 29.1064 14.5536 29.5529 15.9821L36.2493 35.9821C36.6957 37.2321 38.4814 37.2321 38.8386 35.9821L40.0886 31.6964C41.16 28.2143 41.9636 25.7143 41.9636 23.5714C41.9636 20.4464 40.8922 18.3036 39.91 16.6964C38.66 14.6429 37.41 12.8571 37.41 10.8036C37.3207 8.66071 39.1064 6.51786 41.5172 6.51786Z" fill="#0072FF"/>
<path d="M47.1429 15.5357C47.1429 18.0357 46.6965 20.8928 45.2679 24.4643L38.2143 44.6428C37.9465 45.2678 38.7501 45.8929 39.2858 45.4464C45.8036 40.8929 50.0001 33.4821 50.0001 25C50.0001 20.625 48.9286 16.6071 46.9643 13.0357C47.0536 13.8393 47.1429 14.6428 47.1429 15.5357Z" fill="#0072FF"/>
</svg>
